<?xml version="1.0" encoding="UTF-8"?>
<svg enable-background="new 0 0 700.29 120" version="1.1" viewBox="0 0 700.29 120" xml:space="preserve" xmlns="http://www.w3.org/2000/svg">
<style type="text/css">
	.st0{fill:#3C3C55;}
	.st1{fill:#434894;}
	.st2{fill:#FFFFFF;}
</style>
<path class="st0" d="m142.08 32.92h16.25l12.32 42.48 12.64-42.48h16.04l-19.96 57.03h-18.16l-19.13-57.03z"/>
<path class="st0" d="M202.5,32.92h15.72v57.03H202.5V32.92z"/>
<path class="st0" d="m229.42 83.89c-3.36-4.46-5.04-11.75-5.04-21.88 0-7.22 0.65-12.99 1.96-17.31s3.52-7.5 6.64-9.56c3.11-2.05 7.4-3.08 12.85-3.08 4.67 0 9.52 0.89 14.55 2.66v-25.8h15.82v81.03h-13.27l-2.55-5.42c-1.98 1.7-4.39 3.13-7.22 4.3s-5.63 1.75-8.39 1.75c-6.87 0-11.99-2.23-15.35-6.69zm30.95-9.13v-28.68c-1.84-0.71-3.49-1.26-4.94-1.65s-2.96-0.58-4.51-0.58c-2.76 0-4.9 0.48-6.42 1.43-1.52 0.96-2.64 2.69-3.34 5.2-0.71 2.51-1.06 6.11-1.06 10.78 0 4.46 0.34 7.88 1.01 10.25s1.73 4.04 3.19 4.99c1.45 0.96 3.45 1.43 6 1.43 3.38 0.01 6.75-1.05 10.07-3.17z"/>
<path class="st0" d="m292.55 87.93c-3.68-1.7-6.36-4.64-8.02-8.81-1.66-4.18-2.5-10.05-2.5-17.63 0-7.79 0.78-13.79 2.34-18s4.12-7.17 7.7-8.87c3.57-1.7 8.62-2.55 15.13-2.55 5.8 0 10.37 0.57 13.7 1.7s5.75 3.12 7.27 5.95 2.28 6.83 2.28 12c0 5.52-1.58 9.45-4.72 11.79-3.15 2.34-7.74 3.5-13.75 3.5h-14.34c0.14 3.04 0.6 5.4 1.38 7.06s2.16 2.87 4.14 3.61 4.88 1.11 8.71 1.11h16.67v9.24c-3.75 0.78-7.15 1.38-10.19 1.81-3.04 0.42-6.58 0.64-10.62 0.64-6.44-0.01-11.5-0.86-15.18-2.55zm17.84-30.27c2.19 0 3.77-0.44 4.73-1.33 0.96-0.88 1.43-2.39 1.43-4.51 0-3.11-0.71-5.29-2.12-6.53-1.42-1.24-3.82-1.86-7.22-1.86-2.48 0-4.41 0.41-5.79 1.22s-2.39 2.25-3.03 4.3-0.96 4.96-0.96 8.71h12.96z"/>
<path class="st0" d="m345.65 87.77c-3.75-1.81-6.5-4.81-8.23-9.03-1.74-4.21-2.6-10.04-2.6-17.47 0-7.72 0.87-13.68 2.6-17.89s4.48-7.15 8.23-8.81 8.85-2.5 15.29-2.5c6.51 0 11.65 0.87 15.4 2.6 3.75 1.74 6.49 4.71 8.23 8.92 1.73 4.21 2.6 10.11 2.6 17.68 0 7.58-0.85 13.47-2.55 17.68s-4.43 7.19-8.18 8.92c-3.75 1.74-8.92 2.6-15.5 2.6-6.44 0-11.54-0.9-15.29-2.7zm21.55-10.94c1.42-0.74 2.48-2.3 3.19-4.67s1.06-6 1.06-10.89-0.36-8.51-1.06-10.89c-0.71-2.37-1.77-3.93-3.19-4.67s-3.5-1.12-6.27-1.12c-2.69 0-4.74 0.37-6.16 1.12-1.42 0.74-2.48 2.3-3.19 4.67s-1.06 6-1.06 10.89 0.35 8.51 1.06 10.89c0.71 2.37 1.77 3.93 3.19 4.67s3.47 1.12 6.16 1.12c2.77-0.01 4.86-0.38 6.27-1.12z"/>
<path class="st0" d="m416.53 88.99c-2.59-1.06-5.08-2.55-7.49-4.46l-2.55 5.42h-13.17v-81.03h15.72v27.93c2.48-1.34 5.13-2.48 7.96-3.4s5.45-1.38 7.86-1.38c4.88 0 8.8 1.01 11.73 3.03 2.94 2.02 5.08 5.2 6.42 9.56 1.34 4.35 2.02 10.14 2.02 17.36 0 9.63-1.59 16.8-4.78 21.5-3.19 4.71-8.07 7.06-14.65 7.06-3.46 0-6.49-0.53-9.07-1.59zm10.3-14.98c1.66-2.48 2.49-6.72 2.49-12.74 0-4.6-0.42-8.12-1.27-10.57-0.85-2.44-1.96-4.05-3.34-4.83s-3.03-1.17-4.94-1.17c-3.47 0-7.04 1.06-10.73 3.19v27.08c3.4 1.84 6.97 2.76 10.73 2.76 3.04 0 5.4-1.24 7.06-3.72z"/>
<path class="st0" d="m455.61 85.64c-2.94-3.01-4.41-7.7-4.41-14.07v-62.65h15.72v60.32c0 3.04 0.46 5.22 1.38 6.53s2.44 2.11 4.57 2.39l4.35 0.64v11.36h-8.18c-6.01 0-10.49-1.51-13.43-4.52z"/>
<path class="st0" d="m489.32 87.77c-3.75-1.81-6.5-4.81-8.23-9.03-1.74-4.21-2.6-10.04-2.6-17.47 0-7.72 0.87-13.68 2.6-17.89s4.48-7.15 8.23-8.81 8.85-2.5 15.29-2.5c6.51 0 11.65 0.87 15.4 2.6 3.75 1.74 6.49 4.71 8.23 8.92 1.73 4.21 2.6 10.11 2.6 17.68 0 7.58-0.85 13.47-2.55 17.68s-4.43 7.19-8.18 8.92c-3.75 1.74-8.92 2.6-15.51 2.6-6.43 0-11.52-0.9-15.28-2.7zm21.56-10.94c1.42-0.74 2.48-2.3 3.19-4.67s1.06-6 1.06-10.89-0.36-8.51-1.06-10.89c-0.71-2.37-1.77-3.93-3.19-4.67s-3.5-1.12-6.27-1.12c-2.69 0-4.74 0.37-6.16 1.12-1.42 0.74-2.48 2.3-3.19 4.67s-1.06 6-1.06 10.89 0.35 8.51 1.06 10.89c0.71 2.37 1.77 3.93 3.19 4.67s3.47 1.12 6.16 1.12c2.77-0.01 4.85-0.38 6.27-1.12z"/>
<path class="st0" d="m590.85 41.52-8.71 1.59c1.27 1.35 2.3 2.9 3.08 4.67s1.17 4.18 1.17 7.22c0 5.31-1.66 9.54-4.99 12.69s-8.53 4.73-15.61 4.73h-10.09c-4.32 0-6.48 1.31-6.48 3.93 0 1.13 0.48 1.95 1.43 2.44 0.96 0.5 2.14 0.74 3.56 0.74h15.72c6.8 0 11.93 1.36 15.4 4.09s5.2 7.06 5.2 13.01v1.59c0 5.73-1.81 10.18-5.42 13.33s-9.03 4.73-16.25 4.73h-17.1c-5.52 0-10.02-1.2-13.49-3.61s-5.2-5.77-5.2-10.09v-1.7c0-2.83 0.78-5.31 2.34-7.43s3.65-3.79 6.27-4.99c-3.82-2.27-5.73-5.42-5.73-9.45 0-2.83 0.83-5.22 2.49-7.17s3.98-3.27 6.96-3.98c-3.19-1.7-5.51-3.96-6.96-6.8-1.45-2.83-2.18-6.02-2.18-9.56 0-6.3 1.95-10.97 5.84-14.02 3.89-3.04 9.84-4.57 17.84-4.57h30.9v8.61zm-34.94 49.8c-2.41 0-4.34 0.57-5.79 1.7s-2.18 2.72-2.18 4.78v1.17c0 2.05 0.69 3.61 2.07 4.67s3.41 1.59 6.11 1.59h10.83c2.69 0 4.81-0.51 6.37-1.54s2.34-2.57 2.34-4.62v-1.7c0-1.91-0.69-3.4-2.07-4.46s-3.45-1.59-6.21-1.59h-11.47zm14.44-32.7c1.2-1.34 1.81-3.29 1.81-5.84 0-2.9-0.64-4.97-1.91-6.21-1.28-1.24-3.22-1.86-5.84-1.86h-5.95c-2.76 0-4.8 0.6-6.11 1.81s-1.96 3.22-1.96 6.05c0 2.76 0.62 4.8 1.86 6.11s3.13 1.96 5.68 1.96h6.05c3.04-0.01 5.16-0.68 6.37-2.02z"/>
<path class="st0" d="m628.53 86.7c-2.65-2.58-3.98-6.11-3.98-10.57v-5.1c0-4.53 1.57-8.14 4.73-10.83 3.15-2.69 7.84-4.04 14.07-4.04h14.55v-3.93c0-1.91-0.32-3.41-0.96-4.51s-1.84-1.91-3.61-2.44-4.39-0.8-7.86-0.8h-17.1v-9.13c7.01-2.12 14.62-3.19 22.83-3.19 7.5 0 13.12 1.42 16.83 4.25 3.72 2.83 5.57 7.75 5.57 14.76v38.76h-12.42l-2.55-6.05c-0.78 0.78-2.16 1.7-4.14 2.76s-4.34 1.98-7.06 2.76c-2.73 0.78-5.51 1.17-8.34 1.17-4.39 0.01-7.91-1.28-10.56-3.87zm24.79-8.17c2.41-0.74 3.93-1.29 4.57-1.65v-13.27l-9.56 0.64c-5.38 0.42-8.07 2.76-8.07 7.01v2.34c0 4.04 2.34 6.05 7.01 6.05 1.63-0.01 3.65-0.38 6.05-1.12z"/>
<path class="st0" d="M681.15,32.92h15.72v57.03h-15.72V32.92z"/>
<rect class="st0" transform="matrix(.7071 .7071 -.7071 .7071 72.227 -144.35)" x="202.37" y="7.03" width="15.97" height="15.97"/>			
<rect class="st0" transform="matrix(.7071 .7071 -.7071 .7071 212.42 -482.8)" x="681.02" y="7.03" width="15.97" height="15.97"/>			
<rect class="st0" transform="matrix(.7071 .7071 -.7071 .7071 236.08 -405.03)" x="598.97" y="74.47" width="15.97" height="15.97"/>
<path class="st1" d="M95.56,0H24.44C10.94,0,0,10.94,0,24.44v71.12C0,109.06,10.94,120,24.44,120h71.12       c13.5,0,24.44-10.94,24.44-24.44V24.44C120,10.94,109.06,0,95.56,0z"/>
<polygon class="st2" points="37.73 20.29 37.73 31.11 66.62 60.01 37.73 88.9 37.73 99.71 93.05 60.01"/>
<polygon class="st2" points="53.76 60 40.36 46.6 40.36 46.62 40.36 46.6 26.95 60 40.36 73.4 40.36 73.38 40.36 73.4"/>
</svg>
