<?xml version="1.0" encoding="UTF-8"?>
<svg enable-background="new 0 0 595.13 120" version="1.1" viewBox="0 0 595.13 120" xml:space="preserve" xmlns="http://www.w3.org/2000/svg">
<style type="text/css">
	.st0{fill:#3C3C55;}
</style>
<path class="st0" d="M0,31.13h17.32l13.13,45.29l13.47-45.29h17.1l-21.28,60.8H20.38L0,31.13z"/>
<path class="st0" d="M64.42,31.13h16.76v60.8H64.42V31.13z"/>
<path class="st0" d="m93.12 85.47c-3.58-4.76-5.38-12.53-5.38-23.32 0-7.7 0.7-13.85 2.09-18.45 1.4-4.6 3.75-8 7.08-10.19 3.32-2.19 7.89-3.28 13.7-3.28 4.98 0 10.15 0.95 15.51 2.83v-27.52h16.87v86.38h-14.15l-2.72-5.77c-2.11 1.81-4.68 3.34-7.7 4.59-3.02 1.24-6 1.87-8.94 1.87-7.32-0.01-12.78-2.39-16.36-7.14zm33-9.74v-30.57c-1.96-0.75-3.72-1.34-5.26-1.75-1.55-0.41-3.15-0.62-4.81-0.62-2.94 0-5.23 0.51-6.85 1.53s-2.81 2.87-3.57 5.55-1.13 6.51-1.13 11.49c0 4.76 0.36 8.4 1.08 10.93s1.85 4.3 3.4 5.32 3.68 1.53 6.4 1.53c3.61-0.01 7.19-1.14 10.74-3.41z"/>
<path class="st0" d="m160.43 89.77c-3.93-1.81-6.78-4.94-8.55-9.4-1.77-4.45-2.66-10.72-2.66-18.79 0-8.3 0.83-14.7 2.49-19.19s4.4-7.64 8.21-9.45 9.19-2.72 16.13-2.72c6.19 0 11.06 0.61 14.6 1.81 3.55 1.21 6.13 3.32 7.75 6.34s2.43 7.28 2.43 12.79c0 5.89-1.68 10.08-5.04 12.57s-8.25 3.74-14.66 3.74h-15.28c0.15 3.25 0.64 5.76 1.47 7.53s2.3 3.06 4.42 3.85c2.11 0.79 5.21 1.19 9.28 1.19h17.77v9.85c-4 0.83-7.62 1.47-10.87 1.92s-7.02 0.68-11.32 0.68c-6.85 0-12.25-0.91-16.17-2.72zm19.01-32.26c2.34 0 4.02-0.47 5.04-1.42 1.02-0.94 1.53-2.55 1.53-4.81 0-3.32-0.76-5.64-2.26-6.96-1.51-1.32-4.08-1.98-7.7-1.98-2.64 0-4.7 0.43-6.17 1.3s-2.55 2.4-3.23 4.59-1.02 5.28-1.02 9.28h13.81z"/>
<path class="st0" d="m217.03 89.6c-4-1.92-6.93-5.13-8.77-9.62-1.85-4.49-2.77-10.7-2.77-18.62 0-8.23 0.92-14.59 2.77-19.08s4.77-7.62 8.77-9.4c4-1.77 9.43-2.66 16.3-2.66 6.94 0 12.42 0.93 16.42 2.77 4 1.85 6.92 5.02 8.77 9.51s2.77 10.77 2.77 18.85-0.9 14.36-2.72 18.85c-1.81 4.49-4.72 7.66-8.72 9.51s-9.51 2.77-16.53 2.77c-6.85 0.01-12.29-0.95-16.29-2.88zm22.98-11.66c1.51-0.79 2.64-2.45 3.4-4.98 0.75-2.53 1.13-6.4 1.13-11.6 0-5.21-0.38-9.08-1.13-11.61-0.76-2.53-1.89-4.19-3.4-4.98s-3.74-1.19-6.68-1.19c-2.87 0-5.06 0.4-6.57 1.19s-2.64 2.45-3.4 4.98-1.13 6.4-1.13 11.61 0.38 9.08 1.13 11.6c0.75 2.53 1.89 4.19 3.4 4.98s3.7 1.19 6.57 1.19c2.95 0 5.17-0.4 6.68-1.19z"/>
<path class="st0" d="m292.6 90.9c-2.76-1.13-5.42-2.72-7.98-4.75l-2.72 5.77h-14.04v-86.38h16.76v29.78c2.64-1.43 5.47-2.64 8.49-3.62s5.81-1.47 8.38-1.47c5.21 0 9.38 1.08 12.51 3.23s5.41 5.55 6.85 10.19c1.43 4.64 2.15 10.81 2.15 18.51 0 10.26-1.7 17.91-5.1 22.93s-8.6 7.53-15.62 7.53c-3.7-0.02-6.92-0.58-9.68-1.72zm10.98-15.96c1.77-2.64 2.66-7.17 2.66-13.59 0-4.91-0.45-8.66-1.36-11.27-0.91-2.6-2.09-4.32-3.57-5.15-1.47-0.83-3.23-1.25-5.27-1.25-3.7 0-7.51 1.13-11.44 3.4v28.87c3.62 1.96 7.43 2.94 11.44 2.94 3.26 0.01 5.77-1.31 7.54-3.95z"/>
<path class="st0" d="m334.26 87.34c-3.13-3.21-4.7-8.21-4.7-15v-66.8h16.76v64.31c0 3.25 0.49 5.57 1.47 6.96 0.98 1.4 2.6 2.25 4.87 2.55l4.64 0.68v12.11h-8.72c-6.41 0-11.18-1.6-14.32-4.81z"/>
<path class="st0" d="m370.21 89.6c-4-1.92-6.93-5.13-8.77-9.62-1.85-4.49-2.77-10.7-2.77-18.62 0-8.23 0.92-14.59 2.77-19.08s4.77-7.62 8.77-9.4c4-1.77 9.43-2.66 16.3-2.66 6.94 0 12.42 0.93 16.42 2.77 4 1.85 6.92 5.02 8.77 9.51s2.77 10.77 2.77 18.85-0.9 14.36-2.72 18.85c-1.81 4.49-4.72 7.66-8.72 9.51s-9.51 2.77-16.53 2.77c-6.86 0.01-12.29-0.95-16.29-2.88zm22.98-11.66c1.51-0.79 2.64-2.45 3.4-4.98 0.75-2.53 1.13-6.4 1.13-11.6 0-5.21-0.38-9.08-1.13-11.61-0.76-2.53-1.89-4.19-3.4-4.98s-3.74-1.19-6.68-1.19c-2.87 0-5.06 0.4-6.57 1.19s-2.64 2.45-3.4 4.98-1.13 6.4-1.13 11.61 0.38 9.08 1.13 11.6c0.75 2.53 1.89 4.19 3.4 4.98s3.7 1.19 6.57 1.19c2.94 0 5.17-0.4 6.68-1.19z"/>
<path class="st0" d="m478.44 40.3-9.28 1.7c1.36 1.43 2.45 3.1 3.28 4.98 0.83 1.89 1.24 4.45 1.24 7.7 0 5.66-1.77 10.17-5.32 13.53s-9.1 5.04-16.64 5.04h-10.76c-4.6 0-6.91 1.4-6.91 4.19 0 1.21 0.51 2.08 1.53 2.6 1.02 0.53 2.28 0.79 3.79 0.79h16.76c7.25 0 12.72 1.45 16.42 4.36s5.55 7.53 5.55 13.87v1.7c0 6.11-1.92 10.85-5.77 14.21s-9.62 5.04-17.32 5.04h-18.23c-5.89 0-10.68-1.28-14.38-3.85s-5.55-6.15-5.55-10.76v-1.81c0-3.02 0.83-5.66 2.49-7.93 1.66-2.26 3.89-4.04 6.68-5.32-4.08-2.42-6.11-5.77-6.11-10.08 0-3.02 0.89-5.56 2.66-7.64s4.25-3.49 7.42-4.25c-3.4-1.81-5.87-4.23-7.42-7.25s-2.32-6.41-2.32-10.19c0-6.72 2.08-11.7 6.23-14.94s10.49-4.87 19.02-4.87h32.95v9.18zm-37.25 53.09c-2.57 0-4.62 0.6-6.17 1.81s-2.32 2.9-2.32 5.1v1.25c0 2.19 0.74 3.85 2.21 4.98s3.64 1.7 6.51 1.7h11.55c2.87 0 5.13-0.55 6.79-1.64 1.66-1.1 2.49-2.74 2.49-4.92v-1.81c0-2.04-0.73-3.62-2.21-4.75-1.47-1.13-3.68-1.7-6.62-1.7h-12.23zm15.4-34.87c1.28-1.43 1.92-3.51 1.92-6.23 0-3.09-0.68-5.3-2.04-6.62s-3.44-1.98-6.23-1.98h-6.34c-2.94 0-5.12 0.64-6.51 1.92-1.4 1.29-2.09 3.44-2.09 6.45 0 2.94 0.66 5.11 1.98 6.51s3.34 2.09 6.06 2.09h6.45c3.25 0.02 5.52-0.7 6.8-2.14z"/>
<path class="st0" d="m518.61 88.47c-2.83-2.76-4.25-6.51-4.25-11.27v-5.43c0-4.83 1.68-8.68 5.04-11.55s8.36-4.3 15-4.3h15.51v-4.19c0-2.04-0.34-3.64-1.02-4.81s-1.96-2.04-3.85-2.6c-1.89-0.57-4.68-0.85-8.38-0.85h-18.23v-9.74c7.47-2.26 15.58-3.4 24.34-3.4 8 0 13.98 1.51 17.94 4.53s5.94 8.26 5.94 15.74v41.32h-13.25l-2.72-6.45c-0.83 0.83-2.3 1.81-4.42 2.94-2.11 1.13-4.62 2.11-7.53 2.94s-5.87 1.25-8.89 1.25c-4.64 0-8.39-1.37-11.23-4.13zm26.44-8.72c2.57-0.79 4.19-1.38 4.87-1.76v-14.14l-10.19 0.68c-5.74 0.45-8.6 2.94-8.6 7.47v2.49c0 4.3 2.49 6.45 7.47 6.45 1.73 0 3.88-0.4 6.45-1.19z"/>
<path class="st0" d="m574.71 31.13h16.76v60.8h-16.76v-60.8z"/>
<rect class="st0" transform="matrix(.7071 .7071 -.7071 .7071 29.833 -47.949)" x="64.29" y="3.53" width="17.02" height="17.02"/>
<rect class="st0" transform="matrix(.7071 .7071 -.7071 .7071 179.29 -408.78)" x="574.58" y="3.53" width="17.02" height="17.02"/>
<rect class="st0" transform="matrix(.7071 .7071 -.7071 .7071 204.52 -325.86)" x="487.1" y="75.43" width="17.02" height="17.02"/>
</svg>
